<?xml version="1.0" encoding="utf-8"?>
<!DOCTYPE svg PUBLIC "-//W3C//DTD SVG 1.0//EN" "http://www.w3.org/TR/2001/REC-SVG-20010904/DTD/svg10.dtd">
<svg version="1.0" xmlns="http://www.w3.org/2000/svg" width="500px" height="500px" viewBox="0 0 500 500" preserveAspectRatio="xMidYMid meet">
 <g fill="#fefefe">
  <path d="M213.82 437.16 c-9.86 -15.43 -43.46 -67.43 -62.21 -96.34 -12.79 -19.78 -22.36 -34.62 -27.34 -42.48 -2.64 -4.15 -4.93 -7.76 -5.13 -7.96 -0.20 -0.24 -2.54 1.56 -5.18 3.96 -5.81 5.27 -43.31 39.01 -46.83 42.09 -1.37 1.22 -5.86 5.27 -10.01 8.98 -4.15 3.71 -9.33 8.35 -11.43 10.25 -2.15 1.90 -6.64 5.86 -10.01 8.74 -6.15 5.27 -6.15 5.27 -6.45 3.91 -0.39 -1.61 -0.54 -351.81 -0.20 -352.78 0.20 -0.54 5.27 -0.63 27.73 -0.63 l27.44 0.05 0.24 119.09 0.24 119.14 8.79 -8.30 c17.53 -16.65 29.49 -27.98 38.82 -36.82 11.43 -10.89 12.35 -11.72 38.33 -36.23 11.28 -10.60 24.37 -22.95 29.05 -27.44 l8.54 -8.11 32.86 -0.05 c28.71 0 32.86 -0.10 33.11 -0.73 0.44 -1.03 2.49 -0.93 3.13 0.20 0.24 0.54 0.49 1.61 0.49 2.39 0 1.22 -0.15 1.42 -0.98 1.22 -0.78 -0.20 -2.88 1.56 -9.91 8.50 -9.28 9.13 -81.59 79.69 -98.97 96.53 -5.52 5.37 -9.96 9.91 -9.91 10.11 0.24 0.78 69.04 103.96 69.53 104.25 0.24 0.15 0.78 0.05 1.17 -0.29 0.54 -0.44 0.78 -0.34 1.17 0.44 0.73 1.27 0.68 2.34 -0.05 2.64 -0.39 0.10 1.66 3.61 5.52 9.42 22.66 33.94 55.13 82.81 55.13 83.01 0 0.10 -14.79 0.20 -32.91 0.20 l-32.91 0 -10.89 -16.94z"/>
 </g>
 <g fill="#f06431">
  <path d="M419.92 364.01 c0 -115.53 -0.05 -118.90 -0.93 -118.90 -0.49 0 -4.25 3.22 -8.40 7.18 -4.15 4 -12.79 12.16 -19.24 18.21 -6.45 6.05 -17.87 16.94 -25.39 24.22 -7.52 7.28 -15.38 14.75 -17.43 16.60 -2.05 1.86 -13.04 12.16 -24.37 22.90 -11.38 10.74 -22.41 21.19 -24.51 23.19 l-3.91 3.66 -33.35 0.24 -33.35 0.24 -0.54 -1.12 c-0.39 -0.98 -0.29 -1.37 0.63 -2.49 1.46 -1.76 31.49 -31.35 72.36 -71.34 18.26 -17.82 35.69 -34.91 38.77 -37.89 l5.57 -5.47 -8.01 -12.26 c-30.71 -47.07 -60.60 -91.85 -61.33 -91.85 -0.39 0 -0.54 -0.20 -0.39 -0.49 0.44 -0.68 -0.63 -2.44 -1.46 -2.44 -0.39 0 -0.59 -0.29 -0.44 -0.68 0.24 -0.63 -4.15 -7.32 -44.14 -66.70 -12.21 -18.12 -16.46 -24.80 -16.11 -25.24 0.39 -0.49 7.57 -0.63 32.86 -0.63 l32.32 0 2.20 3.56 c2.98 4.74 14.40 22.56 19.53 30.37 2.25 3.52 5.76 8.89 7.71 11.96 3.86 6.05 28.76 44.58 32.96 51.03 1.37 2.15 6.35 9.86 10.99 17.09 4.64 7.28 11.77 18.36 15.87 24.66 4.05 6.30 9.13 14.16 11.18 17.48 2.10 3.27 4 6.10 4.25 6.25 0.39 0.24 4.35 -2.98 16.80 -13.82 2.44 -2.10 9.72 -8.35 16.11 -13.87 6.45 -5.57 15.23 -13.13 19.53 -16.85 29.10 -25.15 36.62 -31.45 37.70 -31.45 l1.12 0 0 176.76 0 176.76 -27.59 0 -27.59 0 0 -118.90z"/>
 </g>
</svg>